<svg width="1447" height="1182" xmlns="http://www.w3.org/2000/svg" xmlns:xlink="http://www.w3.org/1999/xlink" overflow="hidden"><defs><clipPath id="clip0"><rect x="112" y="15" width="1447" height="1182"/></clipPath></defs><g clip-path="url(#clip0)" transform="translate(-112 -15)"><path d="M238 911.5C238 895.76 517.822 883 863 883 1208.18 883 1488 895.76 1488 911.5 1488 927.24 1208.18 940 863 940 517.822 940 238 927.24 238 911.5Z" stroke="#000000" stroke-width="10.3125" stroke-miterlimit="8" fill-rule="evenodd"/><rect x="238" y="883" width="1250" height="27.9998" stroke="#000000" stroke-width="10.3125" stroke-miterlimit="8"/><path d="M238 883C238 867.536 517.822 855 863 855 1208.18 855 1488 867.536 1488 883 1488 898.464 1208.18 911 863 911 517.822 911 238 898.464 238 883Z" stroke="#000000" stroke-width="10.3125" stroke-miterlimit="8" fill="#FFFFFF" fill-rule="evenodd"/><rect x="832" y="845" width="20.9999" height="16.0002" stroke="#FFFFFF" stroke-width="10.3125" stroke-miterlimit="8" fill="#FFFFFF"/><path d="M0 0 0.000360892 811.603" stroke="#000000" stroke-width="10.3125" stroke-miterlimit="8" fill="none" fill-rule="evenodd" transform="matrix(1 0 0 -1 832 882.603)"/><path d="M0 0 0.000360892 808.678" stroke="#000000" stroke-width="10.3125" stroke-miterlimit="8" fill="none" fill-rule="evenodd" transform="matrix(1 0 0 -1 853 882.678)"/><path d="M267.5 84.9999 418 160.25 418 310.75 267.5 386 117 310.75 117 160.25Z" stroke="#000000" stroke-width="10.3125" stroke-miterlimit="8" fill="none" fill-rule="evenodd"/><path d="M269.46 85.3857C512.447 20.5892 927.084 54.3217 1195.58 160.729 1307.32 205.015 1380.82 257.238 1403.69 308.61" stroke="#000000" stroke-width="10.3125" stroke-miterlimit="8" fill="none" fill-rule="evenodd"/><path d="M1403.5 308 1554 383.25 1554 533.75 1403.5 609 1253 533.75 1253 383.25Z" stroke="#000000" stroke-width="10.3125" stroke-miterlimit="8" fill="none" fill-rule="evenodd"/><path d="M208 236C208 202.863 234.863 176 268 176 301.137 176 328 202.863 328 236 328 269.137 301.137 296 268 296 234.863 296 208 269.137 208 236Z" stroke="#4063D8" stroke-width="10.3125" stroke-miterlimit="8" fill="#4063D8" fill-rule="evenodd"/><path d="M1285 499.5C1285 472.162 1307.16 450 1334.5 450 1361.84 450 1384 472.162 1384 499.5 1384 526.838 1361.84 549 1334.5 549 1307.16 549 1285 526.838 1285 499.5Z" stroke="#CB3C33" stroke-width="10.3125" stroke-miterlimit="8" fill="#CB3C33" fill-rule="evenodd"/><path d="M1352 382.5C1352 355.162 1374.16 333 1401.5 333 1428.84 333 1451 355.162 1451 382.5 1451 409.838 1428.84 432 1401.5 432 1374.16 432 1352 409.838 1352 382.5Z" stroke="#389826" stroke-width="10.3125" stroke-miterlimit="8" fill="#389826" fill-rule="evenodd"/><path d="M1419 499.5C1419 472.162 1441.16 450 1468.5 450 1495.84 450 1518 472.162 1518 499.5 1518 526.838 1495.84 549 1468.5 549 1441.16 549 1419 526.838 1419 499.5Z" stroke="#9558B2" stroke-width="10.3125" stroke-miterlimit="8" fill="#9558B2" fill-rule="evenodd"/><text font-family="cmr10,cmr10_MSFontService,sans-serif" font-weight="400" font-size="123" transform="matrix(1 0 0 1 463.288 1086)">eQuilibrator.jl</text></g></svg>