<?xml version="1.0" encoding="UTF-8" standalone="no"?>
<svg
   xmlns:dc="http://purl.org/dc/elements/1.1/"
   xmlns:cc="http://creativecommons.org/ns#"
   xmlns:rdf="http://www.w3.org/1999/02/22-rdf-syntax-ns#"
   xmlns:svg="http://www.w3.org/2000/svg"
   xmlns="http://www.w3.org/2000/svg"
   xmlns:sodipodi="http://sodipodi.sourceforge.net/DTD/sodipodi-0.dtd"
   xmlns:inkscape="http://www.inkscape.org/namespaces/inkscape"
   width="1447"
   height="930"
   overflow="hidden"
   version="1.1"
   id="svg82"
   sodipodi:docname="logo.svg"
   inkscape:version="1.0.2-2 (e86c870879, 2021-01-15)">
  <metadata
     id="metadata86">
    <rdf:RDF>
      <cc:Work
         rdf:about="">
        <dc:format>image/svg+xml</dc:format>
        <dc:type
           rdf:resource="http://purl.org/dc/dcmitype/StillImage" />
        <dc:title></dc:title>
      </cc:Work>
    </rdf:RDF>
  </metadata>
  <sodipodi:namedview
     pagecolor="#ffffff"
     bordercolor="#666666"
     borderopacity="1"
     objecttolerance="10"
     gridtolerance="10"
     guidetolerance="10"
     inkscape:pageopacity="0"
     inkscape:pageshadow="2"
     inkscape:window-width="1920"
     inkscape:window-height="1001"
     id="namedview84"
     showgrid="false"
     inkscape:pagecheckerboard="true"
     inkscape:zoom="0.86129032"
     inkscape:cx="723.5"
     inkscape:cy="465"
     inkscape:window-x="2391"
     inkscape:window-y="81"
     inkscape:window-maximized="1"
     inkscape:current-layer="svg82" />
  <defs
     id="defs52">
    <clipPath
       id="clip0">
      <rect
         x="112"
         y="15"
         width="1447"
         height="930"
         id="rect49" />
    </clipPath>
  </defs>
  <g
     clip-path="url(#clip0)"
     transform="matrix(0.9944368,0,0,0.97922373,-106.77143,-15.142652)"
     id="g80">
    <path
       d="m 238,911.5 c 0,-15.74 279.822,-28.5 625,-28.5 345.18,0 625,12.76 625,28.5 0,15.74 -279.82,28.5 -625,28.5 -345.178,0 -625,-12.76 -625,-28.5 z"
       stroke="#000000"
       stroke-width="10.3125"
       stroke-miterlimit="8"
       fill-rule="evenodd"
       id="path54" />
    <rect
       x="238"
       y="883"
       width="1250"
       height="27.9998"
       stroke="#000000"
       stroke-width="10.3125"
       stroke-miterlimit="8"
       id="rect56" />
    <path
       d="m 238,883 c 0,-15.464 279.822,-28 625,-28 345.18,0 625,12.536 625,28 0,15.464 -279.82,28 -625,28 -345.178,0 -625,-12.536 -625,-28 z"
       stroke="#000000"
       stroke-width="10.3125"
       stroke-miterlimit="8"
       fill="#ffffff"
       fill-rule="evenodd"
       id="path58" />
    <rect
       x="832"
       y="845"
       width="20.999901"
       height="16.0002"
       stroke="#ffffff"
       stroke-width="10.3125"
       stroke-miterlimit="8"
       fill="#ffffff"
       id="rect60" />
    <path
       d="M 0,0 3.60892e-4,811.603"
       stroke="#000000"
       stroke-width="10.3125"
       stroke-miterlimit="8"
       fill="none"
       fill-rule="evenodd"
       transform="matrix(1,0,0,-1,832,882.603)"
       id="path62" />
    <path
       d="M 0,0 3.60892e-4,808.678"
       stroke="#000000"
       stroke-width="10.3125"
       stroke-miterlimit="8"
       fill="none"
       fill-rule="evenodd"
       transform="matrix(1,0,0,-1,853,882.678)"
       id="path64" />
    <path
       d="M 267.5,84.9999 418,160.25 v 150.5 L 267.5,386 117,310.75 v -150.5 z"
       stroke="#000000"
       stroke-width="10.3125"
       stroke-miterlimit="8"
       fill="none"
       fill-rule="evenodd"
       id="path66" />
    <path
       d="m 269.46,85.3857 c 242.987,-64.7965 657.624,-31.064 926.12,75.3433 111.74,44.286 185.24,96.509 208.11,147.881"
       stroke="#000000"
       stroke-width="10.3125"
       stroke-miterlimit="8"
       fill="none"
       fill-rule="evenodd"
       id="path68" />
    <path
       d="m 1403.5,308 150.5,75.25 v 150.5 L 1403.5,609 1253,533.75 v -150.5 z"
       stroke="#000000"
       stroke-width="10.3125"
       stroke-miterlimit="8"
       fill="none"
       fill-rule="evenodd"
       id="path70" />
    <path
       d="m 218,228.5 c 0,-27.338 22.162,-49.5 49.5,-49.5 27.338,0 49.5,22.162 49.5,49.5 0,27.338 -22.162,49.5 -49.5,49.5 -27.338,0 -49.5,-22.162 -49.5,-49.5 z"
       stroke="#4063d8"
       stroke-width="10.3125"
       stroke-miterlimit="8"
       fill="#4063d8"
       fill-rule="evenodd"
       id="path72" />
    <path
       d="m 1290,503.5 c 0,-27.338 22.16,-49.5 49.5,-49.5 27.34,0 49.5,22.162 49.5,49.5 0,27.338 -22.16,49.5 -49.5,49.5 -27.34,0 -49.5,-22.162 -49.5,-49.5 z"
       stroke="#cb3c33"
       stroke-width="10.3125"
       stroke-miterlimit="8"
       fill="#cb3c33"
       fill-rule="evenodd"
       id="path74" />
    <path
       d="m 1357,386.5 c 0,-27.338 22.16,-49.5 49.5,-49.5 27.34,0 49.5,22.162 49.5,49.5 0,27.338 -22.16,49.5 -49.5,49.5 -27.34,0 -49.5,-22.162 -49.5,-49.5 z"
       stroke="#389826"
       stroke-width="10.3125"
       stroke-miterlimit="8"
       fill="#389826"
       fill-rule="evenodd"
       id="path76" />
    <path
       d="m 1424,503.5 c 0,-27.338 22.16,-49.5 49.5,-49.5 27.34,0 49.5,22.162 49.5,49.5 0,27.338 -22.16,49.5 -49.5,49.5 -27.34,0 -49.5,-22.162 -49.5,-49.5 z"
       stroke="#9558b2"
       stroke-width="10.3125"
       stroke-miterlimit="8"
       fill="#9558b2"
       fill-rule="evenodd"
       id="path78" />
  </g>
</svg>
